<svg width="33" height="30" viewBox="0 0 33 30" fill="none" xmlns="http://www.w3.org/2000/svg">
<path d="M30.5 7.50001C30.5 6.50544 30.0786 5.55162 29.3284 4.84836C28.5783 4.14509 27.5609 3.75001 26.5 3.75001H25.5V2.83887C25.5 2.33438 25.0862 1.90137 24.5481 1.87618C24.4129 1.87007 24.2778 1.88976 24.1509 1.93406C24.0241 1.97836 23.9081 2.04634 23.8102 2.13389C23.7122 2.22143 23.6341 2.32672 23.5808 2.44337C23.5275 2.56002 23.5 2.6856 23.5 2.81251V3.75001H9.5V2.83887C9.5 2.33438 9.08625 1.90137 8.54813 1.87618C8.41292 1.87007 8.27779 1.88976 8.15094 1.93406C8.02409 1.97836 7.90815 2.04634 7.81015 2.13389C7.71215 2.22143 7.63413 2.32672 7.58082 2.44337C7.52751 2.56002 7.50001 2.6856 7.5 2.81251V3.75001H6.5C5.43913 3.75001 4.42172 4.14509 3.67157 4.84836C2.92143 5.55162 2.5 6.50544 2.5 7.50001V8.20313C2.5 8.26529 2.52634 8.32491 2.57322 8.36886C2.62011 8.41281 2.6837 8.43751 2.75 8.43751H30.25C30.3163 8.43751 30.3799 8.41281 30.4268 8.36886C30.4737 8.32491 30.5 8.26529 30.5 8.20313V7.50001ZM2.5 24.375C2.5 25.3696 2.92143 26.3234 3.67157 27.0267C4.42172 27.7299 5.43913 28.125 6.5 28.125H26.5C27.5609 28.125 28.5783 27.7299 29.3284 27.0267C30.0786 26.3234 30.5 25.3696 30.5 24.375V10.4883C30.5 10.4417 30.4802 10.397 30.4451 10.364C30.4099 10.331 30.3622 10.3125 30.3125 10.3125H2.6875C2.63777 10.3125 2.59008 10.331 2.55492 10.364C2.51975 10.397 2.5 10.4417 2.5 10.4883V24.375ZM24 12.1875C24.2967 12.1875 24.5867 12.27 24.8334 12.4245C25.08 12.579 25.2723 12.7986 25.3858 13.0556C25.4993 13.3126 25.5291 13.5953 25.4712 13.8681C25.4133 14.1409 25.2704 14.3915 25.0607 14.5881C24.8509 14.7848 24.5836 14.9187 24.2926 14.973C24.0017 15.0272 23.7001 14.9994 23.426 14.893C23.1519 14.7865 22.9176 14.6063 22.7528 14.375C22.588 14.1438 22.5 13.8719 22.5 13.5938C22.5 13.2208 22.658 12.8631 22.9393 12.5994C23.2206 12.3357 23.6022 12.1875 24 12.1875ZM24 16.875C24.2967 16.875 24.5867 16.9575 24.8334 17.112C25.08 17.2665 25.2723 17.4862 25.3858 17.7431C25.4993 18.0001 25.5291 18.2828 25.4712 18.5556C25.4133 18.8284 25.2704 19.079 25.0607 19.2756C24.8509 19.4723 24.5836 19.6062 24.2926 19.6605C24.0017 19.7147 23.7001 19.6869 23.426 19.5805C23.1519 19.474 22.9176 19.2938 22.7528 19.0625C22.588 18.8313 22.5 18.5594 22.5 18.2813C22.5 17.9083 22.658 17.5506 22.9393 17.2869C23.2206 17.0232 23.6022 16.875 24 16.875ZM19 12.1875C19.2967 12.1875 19.5867 12.27 19.8334 12.4245C20.08 12.579 20.2723 12.7986 20.3858 13.0556C20.4993 13.3126 20.5291 13.5953 20.4712 13.8681C20.4133 14.1409 20.2704 14.3915 20.0607 14.5881C19.8509 14.7848 19.5836 14.9187 19.2926 14.973C19.0017 15.0272 18.7001 14.9994 18.426 14.893C18.1519 14.7865 17.9176 14.6063 17.7528 14.375C17.588 14.1438 17.5 13.8719 17.5 13.5938C17.5 13.2208 17.658 12.8631 17.9393 12.5994C18.2206 12.3357 18.6022 12.1875 19 12.1875ZM19 16.875C19.2967 16.875 19.5867 16.9575 19.8334 17.112C20.08 17.2665 20.2723 17.4862 20.3858 17.7431C20.4993 18.0001 20.5291 18.2828 20.4712 18.5556C20.4133 18.8284 20.2704 19.079 20.0607 19.2756C19.8509 19.4723 19.5836 19.6062 19.2926 19.6605C19.0017 19.7147 18.7001 19.6869 18.426 19.5805C18.1519 19.474 17.9176 19.2938 17.7528 19.0625C17.588 18.8313 17.5 18.5594 17.5 18.2813C17.5 17.9083 17.658 17.5506 17.9393 17.2869C18.2206 17.0232 18.6022 16.875 19 16.875ZM19 21.5625C19.2967 21.5625 19.5867 21.645 19.8334 21.7995C20.08 21.954 20.2723 22.1737 20.3858 22.4306C20.4993 22.6876 20.5291 22.9703 20.4712 23.2431C20.4133 23.5159 20.2704 23.7665 20.0607 23.9631C19.8509 24.1598 19.5836 24.2937 19.2926 24.348C19.0017 24.4022 18.7001 24.3744 18.426 24.268C18.1519 24.1615 17.9176 23.9813 17.7528 23.75C17.588 23.5188 17.5 23.2469 17.5 22.9688C17.5 22.5958 17.658 22.2381 17.9393 21.9744C18.2206 21.7107 18.6022 21.5625 19 21.5625ZM14 16.875C14.2967 16.875 14.5867 16.9575 14.8334 17.112C15.08 17.2665 15.2723 17.4862 15.3858 17.7431C15.4994 18.0001 15.5291 18.2828 15.4712 18.5556C15.4133 18.8284 15.2704 19.079 15.0607 19.2756C14.8509 19.4723 14.5836 19.6062 14.2926 19.6605C14.0017 19.7147 13.7001 19.6869 13.426 19.5805C13.1519 19.474 12.9176 19.2938 12.7528 19.0625C12.588 18.8313 12.5 18.5594 12.5 18.2813C12.5 17.9083 12.658 17.5506 12.9393 17.2869C13.2206 17.0232 13.6022 16.875 14 16.875ZM14 21.5625C14.2967 21.5625 14.5867 21.645 14.8334 21.7995C15.08 21.954 15.2723 22.1737 15.3858 22.4306C15.4994 22.6876 15.5291 22.9703 15.4712 23.2431C15.4133 23.5159 15.2704 23.7665 15.0607 23.9631C14.8509 24.1598 14.5836 24.2937 14.2926 24.348C14.0017 24.4022 13.7001 24.3744 13.426 24.268C13.1519 24.1615 12.9176 23.9813 12.7528 23.75C12.588 23.5188 12.5 23.2469 12.5 22.9688C12.5 22.5958 12.658 22.2381 12.9393 21.9744C13.2206 21.7107 13.6022 21.5625 14 21.5625ZM9 16.875C9.29667 16.875 9.58668 16.9575 9.83335 17.112C10.08 17.2665 10.2723 17.4862 10.3858 17.7431C10.4994 18.0001 10.5291 18.2828 10.4712 18.5556C10.4133 18.8284 10.2704 19.079 10.0607 19.2756C9.85088 19.4723 9.58361 19.6062 9.29264 19.6605C9.00166 19.7147 8.70006 19.6869 8.42597 19.5805C8.15189 19.474 7.91762 19.2938 7.7528 19.0625C7.58797 18.8313 7.5 18.5594 7.5 18.2813C7.5 17.9083 7.65804 17.5506 7.93934 17.2869C8.22064 17.0232 8.60218 16.875 9 16.875ZM9 21.5625C9.29667 21.5625 9.58668 21.645 9.83335 21.7995C10.08 21.954 10.2723 22.1737 10.3858 22.4306C10.4994 22.6876 10.5291 22.9703 10.4712 23.2431C10.4133 23.5159 10.2704 23.7665 10.0607 23.9631C9.85088 24.1598 9.58361 24.2937 9.29264 24.348C9.00166 24.4022 8.70006 24.3744 8.42597 24.268C8.15189 24.1615 7.91762 23.9813 7.7528 23.75C7.58797 23.5188 7.5 23.2469 7.5 22.9688C7.5 22.5958 7.65804 22.2381 7.93934 21.9744C8.22064 21.7107 8.60218 21.5625 9 21.5625Z" fill="#888888"/>
</svg>
