<svg width="36" height="30" viewBox="0 0 36 30" fill="none" xmlns="http://www.w3.org/2000/svg">
<path d="M10.5 15.875C13.8852 15.875 16.625 12.7438 16.625 8.875C16.625 5.00625 13.8852 1.875 10.5 1.875C7.11484 1.875 4.375 5.00625 4.375 8.875C4.375 12.7438 7.11484 15.875 10.5 15.875ZM14.7 17.875H14.2461C13.1086 18.5 11.8453 18.875 10.5 18.875C9.15469 18.875 7.89687 18.5 6.75391 17.875H6.3C2.82187 17.875 0 21.1 0 25.075V26.875C0 28.5312 1.17578 29.875 2.625 29.875H18.375C19.8242 29.875 21 28.5312 21 26.875V25.075C21 21.1 18.1781 17.875 14.7 17.875ZM26.25 15.875C29.1484 15.875 31.5 13.1875 31.5 9.875C31.5 6.5625 29.1484 3.875 26.25 3.875C23.3516 3.875 21 6.5625 21 9.875C21 13.1875 23.3516 15.875 26.25 15.875ZM28.875 17.875H28.6672C27.907 18.175 27.1031 18.375 26.25 18.375C25.3969 18.375 24.593 18.175 23.8328 17.875H23.625C22.5094 17.875 21.4812 18.2437 20.5789 18.8375C21.9133 20.4812 22.75 22.6625 22.75 25.075V27.475C22.75 27.6125 22.7227 27.7438 22.7172 27.875H32.375C33.8242 27.875 35 26.5312 35 24.875C35 21.0062 32.2602 17.875 28.875 17.875Z" fill="black"/>
</svg>
