<svg width="36" height="30" viewBox="0 0 36 30" fill="none" xmlns="http://www.w3.org/2000/svg">
<g clip-path="url(#clip0_31_373)">
<path d="M32.5545 17.6919L18.4081 2.80084C18.3063 2.69334 18.1853 2.60804 18.0521 2.54985C17.9189 2.49165 17.7761 2.4617 17.6319 2.4617C17.4877 2.4617 17.345 2.49165 17.2118 2.54985C17.0786 2.60804 16.9576 2.69334 16.8558 2.80084L2.70939 17.6919C2.29726 18.126 2.06372 18.7157 2.06372 19.3307C2.06372 20.6078 3.0494 21.6461 4.26175 21.6461H5.75228V32.2717C5.75228 32.9121 6.24341 33.4294 6.8513 33.4294H15.4339V25.3255H19.2805V33.4294H28.4126C29.0205 33.4294 29.5116 32.9121 29.5116 32.2717V21.6461H31.0021C31.586 21.6461 32.1458 21.4038 32.5579 20.966C33.4131 20.0615 33.4131 18.5963 32.5545 17.6919Z" fill="#888888"/>
</g>
<defs>
<clipPath id="clip0_31_373">
<rect width="36" height="30" fill="white"/>
</clipPath>
</defs>
</svg>
