<svg width="30" height="30" viewBox="0 0 30 30" fill="none" xmlns="http://www.w3.org/2000/svg">
<mask id="mask0_31_375" style="mask-type:luminance" maskUnits="userSpaceOnUse" x="0" y="0" width="30" height="30">
<path d="M23.2459 9.26115C24.0748 10.4485 24.6357 11.8018 24.8897 13.2275H28V16.7725H24.8897C24.6357 18.1982 24.0748 19.5515 23.2459 20.7388L25.4461 22.9391L22.9391 25.4461L20.7388 23.2459C19.5515 24.0748 18.1982 24.6357 16.7725 24.8897V28H13.2275V24.8897C11.8018 24.6357 10.4485 24.0748 9.26115 23.2459L7.0609 25.4461L4.55385 22.9391L6.7541 20.7388C5.92518 19.5515 5.36428 18.1982 5.11025 16.7725H2V13.2275H5.11025C5.36428 11.8018 5.92518 10.4485 6.7541 9.26115L4.55385 7.0609L7.0609 4.55385L9.26115 6.7541C10.4485 5.92518 11.8018 5.36428 13.2275 5.11025V2H16.7725V5.11025C18.1982 5.36428 19.5515 5.92518 20.7388 6.7541L22.9391 4.55385L25.4461 7.0609L23.2459 9.26115Z" fill="white" stroke="white" stroke-width="4" stroke-linejoin="round"/>
<path d="M15 18.25C15.862 18.25 16.6886 17.9076 17.2981 17.2981C17.9076 16.6886 18.25 15.862 18.25 15C18.25 14.138 17.9076 13.3114 17.2981 12.7019C16.6886 12.0924 15.862 11.75 15 11.75C14.138 11.75 13.3114 12.0924 12.7019 12.7019C12.0924 13.3114 11.75 14.138 11.75 15C11.75 15.862 12.0924 16.6886 12.7019 17.2981C13.3114 17.9076 14.138 18.25 15 18.25Z" fill="black" stroke="black" stroke-width="4" stroke-linejoin="round"/>
</mask>
<g mask="url(#mask0_31_375)">
<path d="M-1 -1.00003H31V31H-1V-1.00003Z" fill="black"/>
</g>
</svg>
